<?xml version="1.0" standalone="no"?><!DOCTYPE svg PUBLIC "-//W3C//DTD SVG 1.1//EN" "http://www.w3.org/Graphics/SVG/1.1/DTD/svg11.dtd"><svg t="1567993873289" class="icon" viewBox="0 0 1024 1024" version="1.1" xmlns="http://www.w3.org/2000/svg" p-id="910" width="48" height="48" xmlns:xlink="http://www.w3.org/1999/xlink"><defs><style type="text/css"></style></defs><path d="M512 7C233.096 7 7 233.097 7 512s226.096 505 505 505c278.903 0 505-226.097 505-505S790.903 7 512 7z m41.423 280.247c132.159 3.983 240.368 51.936 296.897 121.705h-18.712c-51.965-45.747-138.102-78.186-230.378-80.971-102.38-3.091-188.891 30.645-251.573 80.971H191.979c80.72-76.66 216.824-126.077 361.444-121.705zM750.181 446.19l-1.688 11.735H703.28l4.423-30.751h23.263c6.021 0 10.92 1.854 14.689 5.578 3.77 3.724 5.274 8.195 4.526 13.438zM205.239 619.365l-13.026-147.52-56.109 147.52H92.829L56.503 427.174h47.138l18.64 135.73 51.829-135.73h49.062l12.191 135.73 59.005-135.738h45.154l-90.336 192.199h-43.947z m261.081-74.334c-0.21 1.479-0.396 2.808-0.561 3.906-0.157 1.146-0.259 1.863-0.313 2.245-0.267 1.863-0.683 3.144-1.228 3.906H352.457c-1.222 11.548 0.748 20.116 6.009 25.701 4.709 5.96 12.713 8.967 23.907 8.967 7.331 0 13.748-1.289 19.303-3.914a11.537 11.537 0 0 0 3.813-1.953c1.244-0.956 2.548-1.953 4.032-3.1 0.546-1.099 2.407-2.578 5.429-4.433 3.086-1.864 7.245-2.816 12.37-2.816h32.312c-6.986 15.636-17.745 27.562-32.263 35.759-14.583 8.583-32.008 12.881-52.245 12.881-24.536 0-42.727-6.921-54.533-20.702-11.862-13.395-15.995-32.562-12.4-57.545 3.421-23.839 12.774-42.48 28.05-55.874 15.762-13.781 35.946-20.694 60.482-20.694 25.854 0 44.905 6.723 57.207 20.114 11.797 13.782 15.932 32.953 12.39 57.552z m69.147 74.334h-45.869l22.725-158.105h-65.881l2.008-13.964c0.797-5.585 3.75-10.348 8.833-14.262 5.079-3.906 10.82-5.86 17.33-5.86h153.772l-4.898 34.086h-65.29l-22.73 158.105z m103.411-101.134c-6.75 5.207-10.962 13.4-12.58 24.611l-11.004 76.522h-45.212l10.369-72.089c2.087-14.499 6.323-26.708 12.707-36.568 6.375-9.874 14.299-17.795 23.754-23.747 8.961-5.571 19.146-9.676 30.496-12.301 11.347-2.625 22.835-3.906 34.469-3.906h6.51l-5.705 39.664h-14.891c-12.512 0.001-22.152 2.627-28.913 7.814z m105.038-28.508l-18.635 129.642h-45.208l21.36-148.611h23.268c6.006 0 10.928 1.862 14.696 5.57 3.755 3.723 5.274 8.202 4.519 13.399zM895.25 512.28l-7.783 49.53c-2.273 14.477-7.081 25.861-14.346 33.991-7.265 8.162-15.346 14.056-24.183 17.679-9.317 3.99-18.916 6.456-28.76 7.387l-0.122 0.008 4.433-28.212h29.006a78.862 78.862 0 0 0 3.93-4.119c5.266-5.894 9.302-13.835 11.66-23.015h-40.329l3.211-20.444c-7.271 0.558-15.627 1.244-20.229 1.992-3.182 0.442-5.937 0.922-8.4 1.479l-2.664 16.973h-32.995c-1.298 3.478-2.274 7.28-2.916 11.399-0.931 5.846-1.037 11.088-0.335 15.734H796.4l-4.625 29.518c-13.834-0.375-25.517-3.884-35.024-10.608-10.073-7.059-13.798-18.755-11.233-35.095 2.397-15.222 9.188-26.088 20.337-32.629 11.133-6.501 24.801-10.858 40.824-13.041 7.548-0.922 11.897-1.608 17.712-2.188 18.574-2.177 28.418-6.868 29.563-14.156 2.524-16.041-29.838-14.27-41.146-10.866-4.778 1.441-8.486 4.136-11.188 8.135h-41.58c3.41-11.241 10.63-20.481 21.725-27.77 12.491-8.31 29.097-12.484 49.753-12.484 23.213 0 40.047 3.441 50.501 10.355 10.888 7.241 15.277 17.406 13.231 30.447z m47.084 107.085h-45.213l27.63-192.191h23.273c6.007 0 10.936 1.762 14.735 5.288 3.777 3.579 5.305 7.92 4.55 13.156l-24.975 173.747z" fill="#1296DB" p-id="911"></path><path d="M393.386 499.788c-9.485 0-17.636 2.617-24.404 7.814-6.815 5.25-11.08 12.683-12.907 22.367h65.887c0.615-10.06-1.346-17.499-5.829-22.367-4.822-5.197-12.443-7.814-22.747-7.814z" fill="#1296DB" p-id="912"></path></svg>