<?xml version="1.0" encoding="utf-8"?>
<!-- Generator: Adobe Illustrator 16.0.0, SVG Export Plug-In . SVG Version: 6.00 Build 0)  -->
<!DOCTYPE svg PUBLIC "-//W3C//DTD SVG 1.1//EN" "http://www.w3.org/Graphics/SVG/1.1/DTD/svg11.dtd">
<svg version="1.1" xmlns="http://www.w3.org/2000/svg" xmlns:xlink="http://www.w3.org/1999/xlink" x="0px" y="0px" width="200px"
	 height="64px" viewBox="0 0 200 64" enable-background="new 0 0 200 64" xml:space="preserve">
<g id="图层_1" display="none">
	<g display="inline">
		<rect x="16.82" y="12.68" fill="#004A92" width="40.981" height="40.981"/>
		<text transform="matrix(1 0 0 1 63.1724 32.4004)" fill="#030000" font-family="'FZLTZHK--GBK1-0'" font-size="15.3679">微试云设计中心</text>
		<text transform="matrix(1 0 0 1 63.1724 47.2246)" fill="#888888" font-family="'STXihei'" font-size="9.9891">WeTrial UEDC</text>
		<text transform="matrix(1 0 0 1 21.3896 32.4004)"><tspan x="0" y="0" fill="#FFFFFF" font-family="'Corbel-Bold'" font-size="23.8117">UE</tspan><tspan x="0" y="16.987" fill="#FFFFFF" font-family="'Corbel-Bold'" font-size="23.8117">DC</tspan></text>
	</g>
</g>
<g id="图层_2" display="none">
	<path display="inline" fill="#004A92" d="M63.926,44.655c0,5.043-4.088,9.131-9.131,9.131H30.951c-5.043,0-9.131-4.088-9.131-9.131
		V20.812c0-5.043,4.088-9.131,9.131-9.131h23.843c5.043,0,9.131,4.088,9.131,9.131V44.655z"/>
	<g display="inline">
		<path fill-rule="evenodd" clip-rule="evenodd" fill="#FFFFFF" d="M36.268,34.263c0.309-2.827,1.629-5.834,4.267-8.318
			c2.378-2.238,5.344-3.581,7.788-3.737l0.468-0.468c-3.159-0.331-7.065,1.176-10.471,4.382c-3.727,3.507-5.895,8.147-5.996,12.085
			L36.268,34.263z"/>
		<path fill="#FFFFFF" d="M47.044,34.012L45.5,31.95c-0.31-0.416-0.509-0.826-0.597-1.233c-0.086-0.405-0.086-0.803,0.001-1.188
			c0.085-0.364,0.237-0.721,0.455-1.07s0.474-0.669,0.765-0.96l0.082-0.081l0.081-0.082l0.849,1.136l-0.372,0.372
			c-0.313,0.313-0.488,0.62-0.527,0.918c-0.039,0.3,0.061,0.609,0.3,0.93l1.639,2.19L47.044,34.012z M45.031,36.025l1.147-1.147
			l-3.386-4.522l1.633-1.633l-0.73-0.976l-3.847,3.846c-0.163,0.163-0.257,0.355-0.287,0.581c-0.029,0.225,0.016,0.417,0.136,0.577
			l0.299,0.399l1.648-1.647L45.031,36.025z M35.106,45.95l-5.716-3.899l1.179-1.179l3.862,2.929l-2.1-4.691l1.228-1.228l3.7,3.091
			l-1.919-4.871l1.129-1.13l2.548,7.067l-1.099,1.099l-4.015-3.363l2.286,5.093L35.106,45.95z M42.328,36.437l0.808-0.808
			c0.216,0.565,0.245,1.133,0.087,1.701c-0.149,0.579-0.478,1.123-0.984,1.629c-0.614,0.613-1.242,0.896-1.882,0.847
			c-0.632-0.038-1.214-0.414-1.75-1.129c-0.51-0.683-0.743-1.383-0.695-2.1c0.049-0.739,0.381-1.416,0.995-2.03
			c0.647-0.647,1.291-0.955,1.934-0.928c0.64,0.05,1.223,0.426,1.75,1.129c0.032,0.043,0.061,0.081,0.083,0.112
			c0.025,0.032,0.04,0.053,0.048,0.063c0.04,0.054,0.062,0.096,0.067,0.129l-2.795,2.795c0.258,0.319,0.522,0.484,0.792,0.493
			c0.267,0.031,0.542-0.095,0.822-0.374c0.184-0.184,0.313-0.376,0.385-0.581c0.024-0.042,0.04-0.092,0.047-0.145
			c0.008-0.055,0.015-0.112,0.023-0.178c-0.013-0.041-0.004-0.124,0.025-0.246C42.119,36.693,42.199,36.565,42.328,36.437
			 M39.455,37.129l1.648-1.647c-0.236-0.268-0.471-0.404-0.705-0.413c-0.251-0.01-0.506,0.115-0.764,0.373
			c-0.237,0.236-0.376,0.507-0.415,0.805C39.179,36.548,39.259,36.841,39.455,37.129 M51.108,20.333l0.582-0.582
			c0.15-0.15,0.317-0.23,0.5-0.236c0.184-0.005,0.331,0.065,0.443,0.214l3.721,4.972l-1.13,1.131L51.108,20.333z M46.612,27.01
			l3.183,4.251l1.131-1.13l-2.776-3.709c-0.111-0.148-0.261-0.224-0.448-0.223c-0.188,0.002-0.357,0.078-0.507,0.229L46.612,27.01z
			 M45.679,25.763l0.582-0.582c0.15-0.15,0.32-0.227,0.507-0.227c0.187-0.002,0.337,0.073,0.449,0.223l0.251,0.335l-1.131,1.131
			L45.679,25.763z"/>
		<path fill="#FFFFFF" d="M51.407,22.77c-0.435,0.089-0.942,0.423-1.522,1.004c-0.517,0.517-0.827,1.038-0.932,1.558
			c-0.095,0.46-0.045,0.871,0.151,1.237l1.04-1.041c-0.033-0.167-0.007-0.327,0.077-0.482c0.197-0.368,0.962-1.222,1.301-0.758
			c0.153,0.211,0.024,0.575-0.386,1.093c-0.13,0.161-0.222,0.287-0.389,0.498c-0.346,0.456-0.578,0.907-0.694,1.348
			c-0.115,0.443-0.013,0.885,0.308,1.325c0.344,0.473,0.73,0.672,1.158,0.597c0.407-0.07,0.786-0.274,1.142-0.611l-0.623-0.854
			l-0.799,0.8c-0.134-0.099-0.263-0.232-0.385-0.402c-0.087-0.119-0.158-0.238-0.213-0.358l0.826-0.824l-0.358-0.491
			c0.048-0.076,0.104-0.157,0.173-0.248c0.097-0.133,0.288-0.359,0.456-0.556l0.431,0.593l1.009-1.009
			c0.171,0.288,0.269,0.587,0.284,0.867c0.004,0.068,0.006,0.136,0.005,0.202l-0.726,0.726l0.595,0.816l0.003-0.004
			c0.223-0.27,0.401-0.571,0.535-0.904c0.131-0.311,0.185-0.661,0.162-1.047c-0.021-0.385-0.186-0.789-0.491-1.208l-1.045-1.434
			C52.224,22.823,51.86,22.679,51.407,22.77"/>
	</g>
	<text transform="matrix(1 0 0 1 75.1006 48.8467)" display="inline" fill="#818181" font-family="'FZLTXHK'" font-size="12.1751">用户体验设计中心</text>
	
		<text transform="matrix(1 0 0 1 74.3398 32.7324)" display="inline" fill="#030000" font-family="'Corbel-Bold'" font-size="25.8721">UEDC</text>
</g>
<g id="图层_3">
	<g>
		<g>
			<path fill-rule="evenodd" clip-rule="evenodd" fill="#8DC21F" d="M49.02,26.346c6.531-5.243,15.543-8.758,26.209-8.436
				c9.613,0.289,18.587,3.669,24.002,8.436h1.948c-5.889-7.27-17.163-12.264-30.932-12.68c-15.065-0.456-29.245,4.692-37.654,12.68
				H49.02z"/>
			<path fill="#004A92" d="M71.984,48.268l1.081-7.51c0.217-1.511,0.658-2.782,1.323-3.81c0.665-1.029,1.49-1.854,2.476-2.476
				c0.934-0.581,1.994-1.008,3.177-1.281c1.182-0.272,2.379-0.406,3.592-0.406h0.339h0.339l-0.595,4.132h-1.55
				c-1.305,0-2.308,0.272-3.012,0.814c-0.705,0.543-1.144,1.396-1.312,2.563l-1.146,7.973H71.984z M63.599,48.268h4.779
				l2.368-16.471h6.801l0.511-3.552h-16.02c-0.678,0-1.275,0.203-1.806,0.61c-0.529,0.408-0.836,0.903-0.919,1.486l-0.209,1.456
				h6.864L63.599,48.268z M22.263,48.268l-3.785-20.023h4.912l1.941,14.142l5.399-14.142h5.111l1.271,14.142l6.146-14.142h4.705
				l-9.412,20.023h-4.578l-1.357-15.369l-5.846,15.369H22.263z M57.112,43.493h3.366c-0.728,1.63-1.849,2.871-3.361,3.726
				c-1.519,0.895-3.335,1.343-5.443,1.343c-2.557,0-4.452-0.722-5.682-2.157c-1.235-1.396-1.667-3.391-1.292-5.994
				c0.357-2.485,1.331-4.427,2.922-5.823c1.643-1.436,3.745-2.156,6.301-2.156c2.694,0,4.678,0.702,5.959,2.097
				c1.23,1.436,1.661,3.432,1.292,5.996c-0.022,0.152-0.042,0.293-0.059,0.406c-0.017,0.119-0.027,0.194-0.034,0.233
				c-0.027,0.193-0.07,0.328-0.127,0.408H49.311c-0.126,1.202,0.078,2.095,0.626,2.677c0.491,0.621,1.325,0.934,2.491,0.934
				c0.764,0,1.432-0.135,2.012-0.407c0.138-0.04,0.274-0.109,0.396-0.204c0.13-0.099,0.266-0.203,0.42-0.322
				c0.057-0.113,0.251-0.27,0.566-0.461C56.144,43.594,56.577,43.493,57.112,43.493 M49.688,38.953h6.865
				c0.064-1.047-0.14-1.822-0.607-2.329c-0.502-0.541-1.296-0.814-2.37-0.814c-0.988,0-1.838,0.273-2.542,0.814
				C50.324,37.171,49.879,37.945,49.688,38.953 M108.936,28.245h2.424c0.626,0,1.14,0.183,1.534,0.551
				c0.393,0.373,0.555,0.825,0.476,1.371l-2.603,18.101h-4.712L108.936,28.245z M85.668,32.785l-2.225,15.482h4.709l1.943-13.506
				c0.077-0.543-0.08-1.008-0.473-1.396c-0.393-0.387-0.905-0.58-1.53-0.58H85.668z M86.321,28.245h2.424
				c0.626,0,1.138,0.193,1.531,0.581c0.392,0.387,0.549,0.854,0.47,1.401l-0.175,1.221h-4.71L86.321,28.245z"/>
			<path fill="#8DC21F" d="M104.482,33.939c-1.089-0.723-2.843-1.079-5.26-1.079c-2.154,0-3.884,0.435-5.184,1.3
				c-1.157,0.761-1.909,1.723-2.264,2.894h4.333c0.28-0.417,0.667-0.697,1.164-0.846c1.178-0.355,4.551-0.541,4.287,1.131
				c-0.119,0.76-1.145,1.247-3.08,1.475c-0.606,0.061-1.061,0.133-1.846,0.228c-1.669,0.228-3.092,0.682-4.252,1.358
				c-1.162,0.684-1.869,1.813-2.119,3.4c-0.268,1.702,0.121,2.922,1.17,3.656c0.991,0.7,2.208,1.066,3.649,1.104l0.481-3.074h-3.331
				c-0.072-0.484-0.06-1.031,0.035-1.64c0.068-0.429,0.168-0.825,0.304-1.189h3.438l0.278-1.767
				c0.256-0.058,0.544-0.108,0.875-0.154c0.479-0.077,1.35-0.148,2.107-0.208l-0.334,2.129h4.202
				c-0.247,0.959-0.667,1.786-1.216,2.399c-0.133,0.15-0.269,0.294-0.409,0.43h-3.021l-0.462,2.939l0.013-0.002
				c1.026-0.097,2.025-0.354,2.996-0.77c0.921-0.377,1.763-0.99,2.519-1.842c0.758-0.848,1.259-2.031,1.495-3.54l0.811-5.161
				C106.074,35.753,105.617,34.692,104.482,33.939"/>
		</g>
		<text transform="matrix(1 0 0 1 117.8135 47.334)" fill="#231815" font-family="'FZLTXHK'" font-size="6.5354">用户体验设计中心</text>
		<text transform="matrix(1 0 0 1 117.4043 38.2754)" fill="#030000" font-family="'Corbel-Bold'" font-size="13.672">UEDC</text>
	</g>
</g>
</svg>
